# xmcd CD database file
#
# Track frame offsets:
#	150
#	12237
#	35509
#	57651
#	78610
#	99835
#	124947
#	153989
#	174591
#	177281
#	193540
#	212560
#
# Disc length: 3166 seconds
#
# Revision: 2
# Processed by: cddbd v1.5.1PL0 Copyright (c) Steve Scherf et al.
# Submitted via: CDex 1.51
#
DISCID=9c0c5c0c
DTITLE=KAB. - 日吉
DYEAR=2000
DGENRE=New Age
TTITLE0=すべてのはじまり（「日吉」路上にて）
TTITLE1=生活
TTITLE2=本当は泣きたいクセに
TTITLE3=青空バス
TTITLE4=Realize!?
TTITLE5=雨の遊園地
TTITLE6=夢など見るひまはない
TTITLE7=擦り切れても青いあの頃
TTITLE8=散歩道
TTITLE9=浅草の天使
TTITLE10=カレーライス
TTITLE11=日吉
EXTD=YEAR: 2000
EXTT0=
EXTT1=
EXTT2=
EXTT3=
EXTT4=
EXTT5=
EXTT6=
EXTT7=
EXTT8=
EXTT9=
EXTT10=
EXTT11=
PLAYORDER=
